<svg data-v-fde0c5aa="" xmlns="http://www.w3.org/2000/svg" viewBox="0 0 300 300" class="font"><!----><defs data-v-fde0c5aa=""><!----></defs><rect data-v-fde0c5aa="" fill="transparent" x="0" y="0" width="300px" height="300px" class="logo-background-square"></rect><defs data-v-fde0c5aa=""><linearGradient data-v-fde0c5aa="" gradientTransform="rotate(25)" id="1cf68086-9ca1-4353-9ab6-7a60794a87e2" x1="0%" y1="0%" x2="100%" y2="0%"><stop data-v-fde0c5aa="" offset="0%" stop-color="#666C35" stop-opacity="1"></stop><stop data-v-fde0c5aa="" offset="100%" stop-color="#77D636" stop-opacity="1"></stop></linearGradient></defs><g data-v-fde0c5aa="" id="9553371e-0c18-43ea-8ace-fd247669283d" fill="url(#1cf68086-9ca1-4353-9ab6-7a60794a87e2)" transform="matrix(3.2215554492472607,0,0,3.2215554492472607,39.48455113964162,118.94420436322311)"><path d="M3.32 13.93L3.32 13.93Q2.49 13.93 1.78 13.64L1.78 13.64L1.78 13.64Q1.07 13.36 0.62 12.67L0.62 12.67L0.62 12.67Q0.16 11.99 0.16 10.87L0.16 10.87L0.16 10.87Q0.16 10.68 0.17 10.58L0.17 10.58L2.19 10.06L2.19 10.06Q2.17 10.68 2.37 11.10L2.37 11.10L2.37 11.10Q2.56 11.53 2.89 11.73L2.89 11.73L2.89 11.73Q3.21 11.94 3.58 11.94L3.58 11.94L3.58 11.94Q4.09 11.94 4.42 11.60L4.42 11.60L4.42 11.60Q4.74 11.27 4.80 10.66L4.80 10.66L4.80 10.66Q4.81 10.61 4.81 10.51L4.81 10.51L4.81 10.51Q4.81 10.08 4.61 9.77L4.61 9.77L4.61 9.77Q4.42 9.45 4.14 9.24L4.14 9.24L4.14 9.24Q3.87 9.02 3.36 8.70L3.36 8.70L3.36 8.70Q2.69 8.29 2.26 7.92L2.26 7.92L2.26 7.92Q1.84 7.54 1.61 7.06L1.61 7.06L1.61 7.06Q1.37 6.58 1.37 5.95L1.37 5.95L1.37 5.95Q1.37 5.78 1.38 5.68L1.38 5.68L1.38 5.68Q1.42 4.75 1.86 4.07L1.86 4.07L1.86 4.07Q2.29 3.39 3.06 3.03L3.06 3.03L3.06 3.03Q3.83 2.67 4.86 2.67L4.86 2.67L4.86 2.67Q5.62 2.67 6.28 2.91L6.28 2.91L6.28 2.91Q6.93 3.15 7.36 3.76L7.36 3.76L7.36 3.76Q7.79 4.36 7.81 5.39L7.81 5.39L5.96 5.90L5.96 5.90Q5.95 5.43 5.78 5.11L5.78 5.11L5.78 5.11Q5.61 4.79 5.31 4.62L5.31 4.62L5.31 4.62Q5.02 4.46 4.66 4.46L4.66 4.46L4.66 4.46Q4.18 4.46 3.88 4.77L3.88 4.77L3.88 4.77Q3.58 5.09 3.58 5.58L3.58 5.58L3.58 5.58Q3.58 5.90 3.74 6.15L3.74 6.15L3.74 6.15Q3.90 6.39 4.16 6.58L4.16 6.58L4.16 6.58Q4.42 6.76 4.89 7.05L4.89 7.05L5.42 7.38L5.42 7.38Q5.95 7.71 6.31 8.04L6.31 8.04L6.31 8.04Q6.67 8.36 6.91 8.86L6.91 8.86L6.91 8.86Q7.14 9.36 7.14 10.06L7.14 10.06L7.14 10.06Q7.14 10.17 7.13 10.37L7.13 10.37L7.13 10.37Q7.08 11.40 6.60 12.21L6.60 12.21L6.60 12.21Q6.11 13.02 5.26 13.47L5.26 13.47L5.26 13.47Q4.42 13.93 3.32 13.93L3.32 13.93ZM10.01 13.94L10.01 13.94Q9.41 13.94 8.97 13.67L8.97 13.67L8.97 13.67Q8.52 13.39 8.29 12.89L8.29 12.89L8.29 12.89Q8.05 12.39 8.05 11.74L8.05 11.74L8.05 11.74Q8.05 11.40 8.11 11.05L8.11 11.05L9.06 5.63L11.39 5.63L10.45 10.96L10.45 10.96Q10.39 11.30 10.39 11.46L10.39 11.46L10.39 11.46Q10.39 11.79 10.53 11.97L10.53 11.97L10.53 11.97Q10.68 12.15 11.02 12.15L11.02 12.15L11.02 12.15Q11.60 12.15 12.02 11.71L12.02 11.71L12.02 11.71Q12.44 11.27 12.56 10.55L12.56 10.55L13.43 5.63L15.77 5.63L14.33 13.78L12.18 13.78L12.32 12.58L12.20 12.58L12.20 12.58Q11.79 13.26 11.25 13.60L11.25 13.60L11.25 13.60Q10.71 13.94 10.01 13.94L10.01 13.94ZM15.48 16.61L17.41 5.63L19.42 5.63L19.27 6.96L19.37 6.96L19.37 6.96Q19.71 6.25 20.30 5.86L20.30 5.86L20.30 5.86Q20.88 5.48 21.58 5.48L21.58 5.48L21.58 5.48Q22.67 5.48 23.26 6.20L23.26 6.20L23.26 6.20Q23.85 6.92 23.85 8.34L23.85 8.34L23.85 8.34Q23.85 9.02 23.71 9.87L23.71 9.87L23.71 9.87Q23.47 11.22 23.00 12.14L23.00 12.14L23.00 12.14Q22.54 13.06 21.92 13.51L21.92 13.51L21.92 13.51Q21.30 13.96 20.59 13.96L20.59 13.96L20.59 13.96Q19.73 13.96 19.23 13.58L19.23 13.58L19.23 13.58Q18.72 13.19 18.59 12.52L18.59 12.52L18.47 12.52L17.75 16.61L15.48 16.61ZM19.63 12.02L19.63 12.02Q20.26 12.02 20.72 11.39L20.72 11.39L20.72 11.39Q21.18 10.76 21.40 9.51L21.40 9.51L21.40 9.51Q21.51 8.92 21.51 8.52L21.51 8.52L21.51 8.52Q21.51 7.95 21.31 7.68L21.31 7.68L21.31 7.68Q21.11 7.41 20.72 7.41L20.72 7.41L20.72 7.41Q20.10 7.41 19.63 8.05L19.63 8.05L19.63 8.05Q19.17 8.68 18.96 9.84L18.96 9.84L18.96 9.84Q18.86 10.40 18.86 10.83L18.86 10.83L18.86 10.83Q18.86 11.42 19.06 11.72L19.06 11.72L19.06 11.72Q19.25 12.02 19.63 12.02L19.63 12.02ZM28.39 5.48L28.39 5.48Q29.82 5.48 30.47 6.22L30.47 6.22L30.47 6.22Q31.12 6.97 31.12 8.25L31.12 8.25L31.12 8.25Q31.12 8.79 31.02 9.37L31.02 9.37L31.02 9.37Q30.95 9.81 30.80 10.29L30.80 10.29L26.61 10.29L26.61 10.29Q26.53 10.66 26.53 10.93L26.53 10.93L26.53 10.93Q26.53 11.50 26.80 11.81L26.80 11.81L26.80 11.81Q27.06 12.13 27.54 12.13L27.54 12.13L27.54 12.13Q27.98 12.13 28.35 11.90L28.35 11.90L28.35 11.90Q28.71 11.68 28.97 11.25L28.97 11.25L30.55 11.92L30.55 11.92Q29.97 13.06 29.18 13.51L29.18 13.51L29.18 13.51Q28.40 13.95 27.38 13.95L27.38 13.95L27.38 13.95Q26.47 13.95 25.79 13.58L25.79 13.58L25.79 13.58Q25.11 13.21 24.74 12.48L24.74 12.48L24.74 12.48Q24.36 11.76 24.36 10.73L24.36 10.73L24.36 10.73Q24.36 10.19 24.47 9.59L24.47 9.59L24.47 9.59Q24.82 7.65 25.80 6.56L25.80 6.56L25.80 6.56Q26.77 5.48 28.39 5.48L28.39 5.48ZM28.46 7.21L28.46 7.21Q27.82 7.21 27.44 7.66L27.44 7.66L27.44 7.66Q27.06 8.11 26.90 8.82L26.90 8.82L29.19 8.82L29.19 8.82Q29.26 8.33 29.26 8.09L29.26 8.09L29.26 8.09Q29.26 7.66 29.08 7.43L29.08 7.43L29.08 7.43Q28.90 7.21 28.46 7.21L28.46 7.21ZM31.45 13.78L32.89 5.63L34.85 5.63L34.73 6.85L34.82 6.85L34.82 6.85Q35.15 6.15 35.55 5.82L35.55 5.82L35.55 5.82Q35.96 5.49 36.48 5.49L36.48 5.49L36.48 5.49Q36.89 5.49 37.30 5.64L37.30 5.64L36.91 7.78L36.91 7.78Q36.67 7.72 36.45 7.72L36.45 7.72L36.45 7.72Q35.71 7.72 35.19 8.27L35.19 8.27L35.19 8.27Q34.67 8.81 34.47 9.91L34.47 9.91L33.78 13.78L31.45 13.78ZM36.93 13.78L38.87 2.80L42.64 2.80L42.64 2.80Q43.57 2.80 44.19 3.11L44.19 3.11L44.19 3.11Q44.81 3.42 45.12 3.97L45.12 3.97L45.12 3.97Q45.42 4.52 45.42 5.26L45.42 5.26L45.42 5.26Q45.42 5.59 45.36 5.95L45.36 5.95L45.36 5.95Q45.21 6.80 44.78 7.30L44.78 7.30L44.78 7.30Q44.34 7.81 43.55 8.01L43.55 8.01L43.37 8.10L43.37 8.10Q44.16 8.22 44.58 8.75L44.58 8.75L44.58 8.75Q44.99 9.28 44.99 10.14L44.99 10.14L44.99 10.14Q44.99 10.51 44.93 10.88L44.93 10.88L44.93 10.88Q44.68 12.27 43.73 13.03L43.73 13.03L43.73 13.03Q42.79 13.78 41.13 13.78L41.13 13.78L36.93 13.78ZM40.37 7.33L41.66 7.33L41.66 7.33Q42.01 7.33 42.34 7.15L42.34 7.15L42.34 7.15Q42.67 6.97 42.91 6.62L42.91 6.62L42.91 6.62Q43.15 6.28 43.23 5.82L43.23 5.82L43.23 5.82Q43.26 5.68 43.26 5.52L43.26 5.52L43.26 5.52Q43.26 4.71 42.27 4.71L42.27 4.71L40.84 4.71L40.37 7.33ZM39.57 11.92L40.98 11.92L40.98 11.92Q41.65 11.92 42.11 11.48L42.11 11.48L42.11 11.48Q42.56 11.03 42.70 10.27L42.70 10.27L42.70 10.27Q42.73 10.06 42.73 9.93L42.73 9.93L42.73 9.93Q42.73 9.45 42.45 9.22L42.45 9.22L42.45 9.22Q42.16 8.98 41.64 8.98L41.64 8.98L40.09 8.98L39.57 11.92ZM48.72 13.96L48.72 13.96Q47.33 13.96 46.56 13.19L46.56 13.19L46.56 13.19Q45.80 12.43 45.80 10.90L45.80 10.90L45.80 10.90Q45.80 10.34 45.93 9.57L45.93 9.57L45.93 9.57Q46.30 7.48 47.33 6.48L47.33 6.48L47.33 6.48Q48.36 5.48 49.94 5.48L49.94 5.48L49.94 5.48Q51.33 5.48 52.08 6.23L52.08 6.23L52.08 6.23Q52.83 6.98 52.83 8.50L52.83 8.50L52.83 8.50Q52.83 9.11 52.70 9.90L52.70 9.90L52.70 9.90Q52.34 11.96 51.32 12.96L51.32 12.96L51.32 12.96Q50.30 13.96 48.72 13.96L48.72 13.96ZM48.73 12.22L48.73 12.22Q49.16 12.22 49.49 11.98L49.49 11.98L49.49 11.98Q49.83 11.74 50.09 11.15L50.09 11.15L50.09 11.15Q50.36 10.56 50.54 9.56L50.54 9.56L50.54 9.56Q50.67 8.78 50.67 8.26L50.67 8.26L50.67 8.26Q50.67 7.66 50.48 7.43L50.48 7.43L50.48 7.43Q50.28 7.20 49.88 7.20L49.88 7.20L49.88 7.20Q49.47 7.20 49.15 7.43L49.15 7.43L49.15 7.43Q48.82 7.67 48.56 8.26L48.56 8.26L48.56 8.26Q48.30 8.85 48.12 9.88L48.12 9.88L48.12 9.88Q47.98 10.64 47.98 11.15L47.98 11.15L47.98 11.15Q47.98 11.75 48.17 11.98L48.17 11.98L48.17 11.98Q48.36 12.22 48.73 12.22L48.73 12.22ZM62.26 5.63L64.64 5.63L61.67 13.78L58.78 13.78L58.85 8.31L58.73 8.31L56.90 13.82L54.02 13.82L53.95 5.63L56.29 5.63L55.90 11.81L58.31 5.63L60.22 5.63L60.42 11.88L62.26 5.63ZM64.18 13.78L66.11 2.80L68.45 2.80L66.51 13.78L64.18 13.78Z"></path></g><!----><!----></svg>